<svg viewBox="0 0 16 16" fill="none" xmlns="http://www.w3.org/2000/svg">
<path fill-rule="evenodd" clip-rule="evenodd" d="M2.83473 6.66671C2.72504 7.09287 2.66671 7.53964 2.66671 8.00004C2.66671 8.46044 2.72504 8.90721 2.83473 9.33337H5.40348C5.35852 8.91519 5.33337 8.47084 5.33337 8.00004C5.33337 7.52924 5.35852 7.08489 5.40348 6.66671H2.83473ZM3.38021 5.33337H5.62769C5.83103 4.45811 6.11602 3.73673 6.40513 3.16508C6.45895 3.05865 6.51287 2.95751 6.56638 2.86161C5.20939 3.23941 4.07036 4.14031 3.38021 5.33337ZM8.00004 3.06992C7.87512 3.25695 7.73549 3.48895 7.59495 3.76682C7.38455 4.18284 7.17106 4.70371 7.00195 5.33337H8.99813C8.82902 4.70371 8.61553 4.18284 8.40513 3.76682C8.26459 3.48895 8.12497 3.25695 8.00004 3.06992ZM9.25457 6.66671H6.74551C6.69541 7.079 6.66671 7.52324 6.66671 8.00004C6.66671 8.47685 6.69541 8.92109 6.74551 9.33337H9.25457C9.30467 8.92109 9.33337 8.47685 9.33337 8.00004C9.33337 7.52324 9.30467 7.079 9.25457 6.66671ZM10.5966 9.33337C10.6416 8.91519 10.6667 8.47084 10.6667 8.00004C10.6667 7.52924 10.6416 7.08489 10.5966 6.66671H13.1654C13.275 7.09287 13.3334 7.53964 13.3334 8.00004C13.3334 8.46044 13.275 8.90721 13.1654 9.33337H10.5966ZM8.99813 10.6667H7.00195C7.17106 11.2964 7.38455 11.8172 7.59495 12.2333C7.73549 12.5111 7.87512 12.7431 8.00004 12.9302C8.12497 12.7431 8.26459 12.5111 8.40513 12.2333C8.61553 11.8172 8.82902 11.2964 8.99813 10.6667ZM6.56638 13.1385C6.51288 13.0426 6.45895 12.9414 6.40513 12.835C6.11602 12.2634 5.83103 11.542 5.62769 10.6667H3.38021C4.07036 11.8598 5.2094 12.7607 6.56638 13.1385ZM9.43371 13.1385C9.48721 13.0426 9.54113 12.9414 9.59495 12.835C9.88407 12.2634 10.169 11.542 10.3724 10.6667H12.6199C11.9297 11.8598 10.7907 12.7607 9.43371 13.1385ZM12.6199 5.33337H10.3724C10.169 4.45811 9.88407 3.73673 9.59495 3.16508C9.54113 3.05865 9.48721 2.95751 9.43371 2.86161C10.7907 3.23941 11.9297 4.14031 12.6199 5.33337ZM1.33337 8.00004C1.33337 4.31814 4.31814 1.33337 8.00004 1.33337C11.6819 1.33337 14.6667 4.31814 14.6667 8.00004C14.6667 11.6819 11.6819 14.6667 8.00004 14.6667C4.31814 14.6667 1.33337 11.6819 1.33337 8.00004Z" />
</svg>
