<svg viewBox="0 0 16 16" fill="none" xmlns="http://www.w3.org/2000/svg">
<path fill-rule="evenodd" clip-rule="evenodd" d="M8.18638 2.47723C8.06463 2.44178 7.9353 2.44178 7.81356 2.47723C7.77852 2.48744 7.71695 2.51297 7.58595 2.61215C7.44818 2.71646 7.27952 2.86574 7.01671 3.09935L3.52363 6.20431C3.09539 6.58496 2.97399 6.69974 2.8896 6.82669C2.80841 6.94882 2.74793 7.08351 2.71059 7.22533C2.67177 7.37275 2.66664 7.53973 2.66664 8.1127V11.4467C2.66664 12.0274 2.66717 12.4221 2.6925 12.7271C2.71716 13.024 2.76183 13.1756 2.81675 13.2813C2.94325 13.5249 3.14181 13.7234 3.38534 13.8499C3.49106 13.9048 3.64264 13.9495 3.9396 13.9742C4.24454 13.9995 4.63929 14 5.21997 14H5.3333V12C5.3333 10.5273 6.52721 9.33337 7.99997 9.33337C9.47273 9.33337 10.6666 10.5273 10.6666 12V14H10.78C11.3606 14 11.7554 13.9995 12.0603 13.9742C12.3573 13.9495 12.5089 13.9048 12.6146 13.8499C12.8581 13.7234 13.0567 13.5249 13.1832 13.2813C13.2381 13.1756 13.2828 13.024 13.3074 12.7271C13.3328 12.4221 13.3333 12.0274 13.3333 11.4467V8.1127C13.3333 7.53973 13.3282 7.37275 13.2894 7.22533C13.252 7.08351 13.1915 6.94882 13.1103 6.8267C13.0259 6.69974 12.9045 6.58496 12.4763 6.20431L8.98323 3.09935C8.72042 2.86574 8.55176 2.71646 8.41399 2.61215C8.28299 2.51297 8.22142 2.48744 8.18638 2.47723ZM7.44074 1.19708C7.80597 1.09072 8.19396 1.09072 8.55919 1.19708C8.81261 1.27089 9.02274 1.40067 9.21882 1.54913C9.40349 1.68894 9.61144 1.8738 9.8509 2.08667L13.3621 5.20776C13.381 5.22457 13.3997 5.24114 13.4181 5.2575C13.7659 5.56632 14.0286 5.7996 14.2207 6.08855C14.3831 6.33281 14.5041 6.60218 14.5787 6.88582C14.6671 7.22135 14.6669 7.5727 14.6667 8.03779C14.6666 8.06244 14.6666 8.0874 14.6666 8.1127V11.4747C14.6666 12.0204 14.6667 12.4707 14.6362 12.8374C14.6046 13.2183 14.5367 13.5682 14.3664 13.896C14.1134 14.383 13.7163 14.7801 13.2292 15.0331C12.9015 15.2034 12.5516 15.2713 12.1707 15.3029C11.804 15.3334 11.3536 15.3334 10.808 15.3334H10.5366C10.5315 15.3334 10.5263 15.3334 10.521 15.3334C10.4402 15.3334 10.3438 15.3334 10.2589 15.3264C10.1604 15.3182 10.0195 15.2972 9.87233 15.2208C9.68968 15.1259 9.54076 14.977 9.44589 14.7943C9.36946 14.6472 9.34846 14.5063 9.34028 14.4078C9.33323 14.3229 9.33327 14.2265 9.3333 14.1457L9.3333 12C9.3333 11.2637 8.73635 10.6667 7.99997 10.6667C7.26359 10.6667 6.66664 11.2637 6.66664 12L6.66664 14.1457C6.66667 14.2265 6.66671 14.3229 6.65966 14.4078C6.65148 14.5063 6.63048 14.6472 6.55405 14.7943C6.45918 14.977 6.31026 15.1259 6.12761 15.2208C5.98047 15.2972 5.83953 15.3182 5.74107 15.3264C5.65616 15.3334 5.55973 15.3334 5.47898 15.3334C5.47369 15.3334 5.46846 15.3334 5.4633 15.3334H5.19198C4.64629 15.3334 4.19593 15.3334 3.82926 15.3029C3.44836 15.2713 3.09846 15.2034 2.7707 15.0331C2.28366 14.7801 1.88653 14.383 1.63353 13.896C1.46328 13.5682 1.39537 13.2183 1.36374 12.8374C1.33329 12.4707 1.33329 12.0204 1.3333 11.4747L1.3333 8.1127C1.3333 8.0874 1.33329 8.06244 1.33328 8.03779C1.33303 7.5727 1.33285 7.22135 1.4212 6.88582C1.49589 6.60218 1.61685 6.33281 1.77922 6.08855C1.97131 5.79961 2.23403 5.56632 2.58181 5.2575C2.60024 5.24114 2.6189 5.22457 2.63781 5.20776L6.14903 2.08668C6.3885 1.8738 6.59645 1.68894 6.78111 1.54913C6.97719 1.40067 7.18733 1.27089 7.44074 1.19708Z" />
</svg>
