<svg viewBox="0 0 16 16" fill="none" xmlns="http://www.w3.org/2000/svg">
<g clip-path="url(#clip0_218_441)">
<path fill-rule="evenodd" clip-rule="evenodd" d="M7.99996 5.33331C6.5272 5.33331 5.33329 6.52722 5.33329 7.99997C5.33329 9.47273 6.5272 10.6666 7.99996 10.6666C9.47271 10.6666 10.6666 9.47273 10.6666 7.99997C10.6666 6.52722 9.47271 5.33331 7.99996 5.33331ZM6.66662 7.99997C6.66662 7.2636 7.26358 6.66664 7.99996 6.66664C8.73633 6.66664 9.33329 7.2636 9.33329 7.99997C9.33329 8.73635 8.73633 9.33331 7.99996 9.33331C7.26358 9.33331 6.66662 8.73635 6.66662 7.99997Z" />
<path fill-rule="evenodd" clip-rule="evenodd" d="M7.99996 5.33331C6.5272 5.33331 5.33329 6.52722 5.33329 7.99997C5.33329 9.47273 6.5272 10.6666 7.99996 10.6666C9.47271 10.6666 10.6666 9.47273 10.6666 7.99997C10.6666 6.52722 9.47271 5.33331 7.99996 5.33331ZM6.66662 7.99997C6.66662 7.2636 7.26358 6.66664 7.99996 6.66664C8.73633 6.66664 9.33329 7.2636 9.33329 7.99997C9.33329 8.73635 8.73633 9.33331 7.99996 9.33331C7.26358 9.33331 6.66662 8.73635 6.66662 7.99997Z"/>
<path fill-rule="evenodd" clip-rule="evenodd" d="M7.17815 0.678022C7.32832 0.666512 7.49687 0.666579 7.63433 0.666634L8.36559 0.666634C8.50305 0.666579 8.67159 0.666512 8.82176 0.678022C8.99919 0.691621 9.24515 0.726197 9.50891 0.846204C9.84229 0.997884 10.1276 1.2382 10.3338 1.54094C10.4969 1.78046 10.5728 2.01696 10.6163 2.18949C10.6532 2.33552 10.6818 2.50162 10.7051 2.63709L10.7995 3.18419L10.8013 3.18521C10.8245 3.19804 10.8477 3.21102 10.8706 3.22416L10.8723 3.22512L11.497 2.99906C11.6237 2.95315 11.7795 2.89669 11.9223 2.85691C12.0914 2.80983 12.3302 2.75922 12.6144 2.78013C12.9742 2.80661 13.3202 2.92994 13.6156 3.13705C13.8489 3.30059 14.0019 3.49087 14.1031 3.63429C14.1885 3.75546 14.2735 3.89777 14.3426 4.01349L14.6772 4.57332C14.7503 4.69559 14.8395 4.84471 14.9084 4.98347C14.9895 5.14683 15.0885 5.38312 15.1184 5.68041C15.1561 6.05478 15.0873 6.43217 14.9201 6.76923C14.7874 7.0369 14.6114 7.22311 14.4779 7.3474C14.3646 7.45297 14.2285 7.56108 14.117 7.64972L13.6666 7.99997L14.117 8.35025C14.2285 8.43889 14.3645 8.54698 14.4779 8.65255C14.6114 8.77684 14.7873 8.96305 14.9201 9.23072C15.0873 9.56778 15.156 9.94517 15.1184 10.3195C15.0885 10.6168 14.9895 10.8531 14.9084 11.0165C14.8395 11.1552 14.7503 11.3044 14.6772 11.4266L14.3425 11.9866C14.2734 12.1023 14.1885 12.2445 14.103 12.3657C14.0019 12.5091 13.8489 12.6994 13.6156 12.8629C13.3201 13.07 12.9742 13.1933 12.6143 13.2198C12.3302 13.2407 12.0914 13.1901 11.9223 13.143C11.7794 13.1033 11.6236 13.0468 11.4969 13.0009L10.8723 12.7748L10.8706 12.7758C10.8476 12.7889 10.8245 12.8019 10.8013 12.8147L10.7995 12.8158L10.7051 13.3629C10.6818 13.4983 10.6532 13.6644 10.6163 13.8105C10.5728 13.983 10.4969 14.2195 10.3338 14.459C10.1276 14.7617 9.84229 15.0021 9.50891 15.1537C9.24515 15.2738 8.99919 15.3083 8.82176 15.3219C8.67159 15.3334 8.50304 15.3334 8.36557 15.3333H7.63434C7.49687 15.3334 7.32832 15.3334 7.17815 15.3219C7.00072 15.3083 6.75476 15.2738 6.491 15.1537C6.15761 15.0021 5.87229 14.7617 5.66613 14.459C5.50303 14.2195 5.42714 13.983 5.38357 13.8105C5.3467 13.6644 5.31811 13.4983 5.29479 13.3628L5.20041 12.8158L5.19856 12.8147C5.17536 12.8019 5.15226 12.7889 5.12926 12.7758L5.12758 12.7748L4.50301 13.0009C4.37629 13.0468 4.22048 13.1032 4.07763 13.143C3.90855 13.1901 3.66971 13.2407 3.38557 13.2198C3.02573 13.1933 2.67976 13.07 2.38432 12.8629C2.15102 12.6993 1.99805 12.5091 1.89688 12.3656C1.81141 12.2445 1.72645 12.1022 1.65736 11.9865L1.32275 11.4266C1.2496 11.3043 1.16041 11.1552 1.09154 11.0165C1.01046 10.8531 0.911417 10.6168 0.881525 10.3195C0.843883 9.94516 0.912606 9.56777 1.0798 9.23071C1.21257 8.96304 1.38855 8.77683 1.52201 8.65254C1.63537 8.54697 1.7714 8.43888 1.88296 8.35024L2.31892 8.00354V7.99643L1.88293 7.64971C1.77137 7.56107 1.63534 7.45298 1.52198 7.34741C1.38853 7.22312 1.21254 7.03691 1.07977 6.76924C0.912577 6.43218 0.843853 6.05478 0.881495 5.68042C0.911387 5.38313 1.01043 5.14684 1.09151 4.98348C1.16038 4.84472 1.24958 4.69561 1.32272 4.57333L1.65733 4.01347C1.72642 3.89775 1.81138 3.75546 1.89685 3.6343C1.99802 3.49088 2.15099 3.3006 2.38429 3.13706C2.67974 2.92995 3.02571 2.80662 3.38554 2.78014C3.66968 2.75923 3.90852 2.80984 4.0776 2.85692C4.22044 2.8967 4.37625 2.95316 4.50297 2.99907L5.12756 3.22513L5.12925 3.22416C5.15225 3.21103 5.17536 3.19804 5.19856 3.18521L5.20041 3.18419L5.29479 2.6371C5.31811 2.50162 5.3467 2.33552 5.38357 2.18949C5.42714 2.01696 5.50303 1.78046 5.66613 1.54094C5.87229 1.2382 6.15761 0.997884 6.491 0.846204C6.75476 0.726197 7.00072 0.691621 7.17815 0.678022ZM9.39585 2.89082C9.34065 2.57085 9.31305 2.41087 9.2317 2.29141C9.16298 2.19049 9.06787 2.11039 8.95674 2.05983C8.82519 1.99997 8.66284 1.99997 8.33814 1.99997H7.66177C7.33707 1.99997 7.17472 1.99997 7.04317 2.05983C6.93204 2.11039 6.83693 2.19049 6.76821 2.29141C6.68686 2.41087 6.65926 2.57085 6.60406 2.89082L6.50004 3.49372C6.46293 3.70885 6.44437 3.8164 6.40506 3.89909C6.36646 3.98027 6.3349 4.02464 6.27086 4.08773C6.20564 4.15199 6.08498 4.21869 5.84365 4.35211C5.82586 4.36194 5.80814 4.3719 5.79051 4.38197C5.55966 4.51381 5.44424 4.57973 5.35853 4.60205C5.27434 4.62397 5.22191 4.62848 5.13522 4.62127C5.04695 4.61392 4.94807 4.57813 4.7503 4.50656L4.07459 4.26201C3.7751 4.15362 3.62535 4.09943 3.4834 4.10988C3.36345 4.1187 3.24813 4.15981 3.14965 4.22885C3.03309 4.31055 2.95139 4.44725 2.788 4.72065L2.48175 5.23306C2.30925 5.52169 2.223 5.66601 2.20814 5.81381C2.19559 5.9386 2.2185 6.0644 2.27423 6.17675C2.34024 6.30983 2.47183 6.41447 2.735 6.62376L3.21826 7.00808C3.38614 7.14159 3.47008 7.20835 3.5227 7.27992C3.57958 7.35729 3.60384 7.40758 3.62899 7.50025C3.65225 7.58599 3.65225 7.72398 3.65225 7.99997C3.65225 8.27598 3.65225 8.41399 3.62899 8.49974C3.60384 8.5924 3.57958 8.64268 3.52271 8.72004C3.47008 8.79162 3.38614 8.85838 3.21825 8.9919L2.73503 9.37618C2.47186 9.58547 2.34027 9.69012 2.27426 9.8232C2.21853 9.93555 2.19562 10.0613 2.20817 10.1861C2.22303 10.3339 2.30928 10.4783 2.48178 10.7669L2.78803 11.2793C2.95142 11.5527 3.03312 11.6894 3.14968 11.7711C3.24816 11.8401 3.36348 11.8812 3.48343 11.8901C3.62538 11.9005 3.77513 11.8463 4.07462 11.7379L4.75031 11.4934C4.94807 11.4218 5.04696 11.386 5.13523 11.3787C5.22192 11.3715 5.27435 11.376 5.35854 11.3979C5.44425 11.4202 5.55967 11.4861 5.7905 11.618C5.80815 11.6281 5.82586 11.638 5.84365 11.6478C6.08498 11.7813 6.20564 11.848 6.27086 11.9122C6.3349 11.9753 6.36646 12.0197 6.40506 12.1009C6.44437 12.1835 6.46293 12.2911 6.50004 12.5062L6.60406 13.1091C6.65926 13.4291 6.68686 13.5891 6.76821 13.7085C6.83693 13.8095 6.93204 13.8896 7.04317 13.9401C7.17472 14 7.33707 14 7.66177 14H8.33814C8.66284 14 8.82519 14 8.95674 13.9401C9.06787 13.8896 9.16298 13.8095 9.2317 13.7085C9.31305 13.5891 9.34065 13.4291 9.39585 13.1091L9.49987 12.5062C9.53698 12.2911 9.55554 12.1835 9.59485 12.1009C9.63345 12.0197 9.66501 11.9753 9.72905 11.9122C9.79427 11.848 9.91493 11.7813 10.1563 11.6478C10.174 11.638 10.1918 11.6281 10.2094 11.618C10.4402 11.4862 10.5557 11.4202 10.6414 11.3979C10.7255 11.376 10.778 11.3715 10.8647 11.3787C10.9529 11.386 11.0518 11.4218 11.2496 11.4934L11.9253 11.7379C12.2248 11.8463 12.3745 11.9005 12.5165 11.8901C12.6364 11.8813 12.7518 11.8401 12.8502 11.7711C12.9668 11.6894 13.0485 11.5527 13.2119 11.2793L13.5181 10.7669C13.6906 10.4783 13.7769 10.3339 13.7917 10.1861C13.8043 10.0614 13.7814 9.93556 13.7256 9.82321C13.6596 9.69013 13.5281 9.58548 13.2649 9.37619L12.7817 8.99191C12.6138 8.85839 12.5298 8.79163 12.4772 8.72004C12.4203 8.64269 12.3961 8.59241 12.3709 8.49975C12.3477 8.414 12.3477 8.27599 12.3477 7.99997C12.3477 7.72398 12.3477 7.58598 12.3709 7.50024C12.3961 7.40756 12.4203 7.35728 12.4772 7.27992C12.5298 7.20834 12.6138 7.14158 12.7817 7.00807L13.2649 6.62376C13.5281 6.41447 13.6597 6.30982 13.7257 6.17674C13.7814 6.06439 13.8043 5.93859 13.7918 5.8138C13.7769 5.666 13.6907 5.52168 13.5182 5.23305L13.2119 4.72064C13.0485 4.44724 12.9668 4.31055 12.8503 4.22884C12.7518 4.1598 12.6365 4.11869 12.5165 4.10987C12.3746 4.09942 12.2248 4.15361 11.9253 4.262L11.2496 4.50655C11.0518 4.57812 10.953 4.61391 10.8647 4.62126C10.778 4.62848 10.7256 4.62397 10.6414 4.60204C10.5557 4.57972 10.4402 4.51381 10.2094 4.38197C10.1918 4.3719 10.1741 4.36194 10.1563 4.35211C9.91493 4.21869 9.79427 4.15199 9.72905 4.08773C9.66501 4.02464 9.63345 3.98027 9.59485 3.89909C9.55554 3.8164 9.53698 3.70884 9.49987 3.49372L9.39585 2.89082Z"/>
</g>
<defs>
<clipPath id="clip0_218_441">
<rect width="16" height="16" fill="white"/>
</clipPath>
</defs>
</svg>
