<svg width="24" height="13" viewBox="0 0 24 13" fill="none" xmlns="http://www.w3.org/2000/svg">
<path d="M6.63067 1.92686C7.07784 1.3885 7.29943 0.698038 7.24907 0C6.56373 0.0661504 5.93108 0.396587 5.48524 0.921268C5.26322 1.17259 5.09305 1.4653 4.98452 1.78259C4.87598 2.09988 4.83121 2.43549 4.85279 2.77013C5.19419 2.77682 5.53248 2.70413 5.841 2.5578C6.14953 2.41146 6.41985 2.19548 6.63067 1.92686ZM7.2069 2.89732C6.22309 2.8404 5.39388 3.4595 4.92306 3.4595C4.45223 3.4595 3.73546 2.92824 2.96246 2.9423C2.45633 2.95656 1.96279 3.10341 1.53119 3.36817C1.09958 3.63292 0.745022 4.00632 0.502938 4.45104C-0.551145 6.27812 0.221849 8.99976 1.24782 10.4874C1.74676 11.1944 2.34407 12.0369 3.13814 12.0095C3.93222 11.9821 4.17817 11.5176 5.08468 11.5176C5.9912 11.5176 6.25823 12.0095 7.04528 11.9919C7.83233 11.9744 8.38045 11.2836 8.87236 10.5162C9.22718 9.99209 9.50412 9.41927 9.69454 8.81564C9.222 8.60645 8.82002 8.26511 8.53701 7.83273C8.25399 7.40035 8.10201 6.89537 8.09936 6.37861C8.10518 5.92009 8.22596 5.47036 8.45063 5.07062C8.6753 4.67087 8.99669 4.33389 9.38534 4.09054C9.1384 3.73746 8.81342 3.44602 8.43563 3.23884C8.05783 3.03167 7.63738 2.91432 7.2069 2.89592V2.89732ZM13.4822 1.47923V3.4855H15.0844V4.81013H13.4822V9.55702C13.4822 10.2654 13.7984 10.6266 14.5012 10.6266C14.6939 10.6231 14.8862 10.609 15.0774 10.5844V11.9196C14.7638 11.9704 14.4464 11.9939 14.1287 11.9898C12.4703 11.9898 11.8308 11.3454 11.8308 9.72989V4.84175H10.5729V3.51361H11.7957V1.48063L13.4822 1.47923ZM20.6851 11.9168H18.9283L15.9769 3.51361H17.7267L19.7997 10.2654H19.8418L21.9149 3.51361H23.6295L20.6851 11.9168Z" fill="white"/>
</svg>
