<svg width="32" height="32" viewBox="0 0 32 32" fill="none" xmlns="http://www.w3.org/2000/svg">
<g clip-path="url(#clip0_158_13)">
<path d="M27 0H5C2.23858 0 0 2.23858 0 5V27C0 29.7614 2.23858 32 5 32H27C29.7614 32 32 29.7614 32 27V5C32 2.23858 29.7614 0 27 0Z" fill="white"/>
<path d="M13.0862 26.5144C12.9195 23.0144 14.6011 9.62776 24.0973 5.69051C34.3476 1.44063 19.7529 17.8477 13.0862 26.5144Z" fill="#62FFD9"/>
<path d="M12.0862 26.5143C11.0862 20.2643 16.0862 12.5143 16.0861 8.76438C16.0861 6.48248 10.2495 15.4237 9.83614 17.7644C8.33619 21.0143 10.5246 25.9938 12.0862 26.5143Z" fill="#62FFD9" fill-opacity="0.5"/>
<path d="M4.08618 20.2643C3.28618 22.0643 8.2529 25.681 10.8362 26.5143C6.83625 21.7643 8.08625 19.2643 11.0862 12.2643C11.836 9.76438 4.88618 18.4643 4.08618 20.2643Z" fill="#62FFD9" fill-opacity="0.3"/>
</g>
<defs>
<clipPath id="clip0_158_13">
<rect width="32" height="32" fill="white"/>
</clipPath>
</defs>
</svg>
