<svg width="40" height="40" viewBox="0 0 40 40" fill="none" xmlns="http://www.w3.org/2000/svg">
<g filter="url(#filter0_d_344_26)">
<circle cx="20" cy="18" r="16" fill="#FE9500"/>
<path fill-rule="evenodd" clip-rule="evenodd" d="M12 12.5C11.4477 12.5 11 12.9477 11 13.5C11 14.0523 11.4477 14.5 12 14.5C12.5523 14.5 13 14.0523 13 13.5C13 12.9477 12.5523 12.5 12 12.5ZM17 12.5C16.4477 12.5 16 12.9477 16 13.5C16 14.0523 16.4477 14.5 17 14.5H28C28.5523 14.5 29 14.0523 29 13.5C29 12.9477 28.5523 12.5 28 12.5H17ZM16 18C16 17.4477 16.4477 17 17 17H28C28.5523 17 29 17.4477 29 18C29 18.5523 28.5523 19 28 19H17C16.4477 19 16 18.5523 16 18ZM12 17C11.4477 17 11 17.4477 11 18C11 18.5523 11.4477 19 12 19C12.5523 19 13 18.5523 13 18C13 17.4477 12.5523 17 12 17ZM16 22.5C16 21.9477 16.4477 21.5 17 21.5H28C28.5523 21.5 29 21.9477 29 22.5C29 23.0523 28.5523 23.5 28 23.5H17C16.4477 23.5 16 23.0523 16 22.5ZM12 21.5C11.4477 21.5 11 21.9477 11 22.5C11 23.0523 11.4477 23.5 12 23.5C12.5523 23.5 13 23.0523 13 22.5C13 21.9477 12.5523 21.5 12 21.5Z" fill="white"/>
</g>
<defs>
<filter id="filter0_d_344_26" x="0" y="0" width="40" height="40" filterUnits="userSpaceOnUse" color-interpolation-filters="sRGB">
<feFlood flood-opacity="0" result="BackgroundImageFix"/>
<feColorMatrix in="SourceAlpha" type="matrix" values="0 0 0 0 0 0 0 0 0 0 0 0 0 0 0 0 0 0 127 0" result="hardAlpha"/>
<feOffset dy="2"/>
<feGaussianBlur stdDeviation="2"/>
<feColorMatrix type="matrix" values="0 0 0 0 1 0 0 0 0 0.815699 0 0 0 0 0.554167 0 0 0 1 0"/>
<feBlend mode="normal" in2="BackgroundImageFix" result="effect1_dropShadow_344_26"/>
<feBlend mode="normal" in="SourceGraphic" in2="effect1_dropShadow_344_26" result="shape"/>
</filter>
</defs>
</svg>
